<?xml version="1.0" encoding="iso-8859-1"?>
<!-- Generator: Adobe Illustrator 19.0.0, SVG Export Plug-In . SVG Version: 6.00 Build 0)  -->
<svg xmlns="http://www.w3.org/2000/svg" xmlns:xlink="http://www.w3.org/1999/xlink" version="1.1" id="Layer_1" x="0px" y="0px" viewBox="0 0 512.001 512.001" style="enable-background:new 0 0 512.001 512.001;" xml:space="preserve">
<circle style="fill:#3A4DE3;" cx="255.996" cy="255.997" r="255.996"/>
<path style="fill:#1C2EDE;" d="M32.563,184.591l154.392-22.435L256.004,22.26l149.747,151.623l73.687,10.707l29.055,29.055  c2.295,13.78,3.508,27.924,3.508,42.355C512.001,397.386,397.386,512,256.002,512c-31.453,0-61.575-5.685-89.412-16.062  l-48.681-48.681l25.967-151.404L32.563,184.591z"/>
<g>
	<polygon style="fill:#FEC000;" points="256.001,22.255 325.046,162.157 479.437,184.591 367.718,293.49 394.092,447.258    256.001,374.658 117.908,447.258 144.282,293.49 32.563,184.591 186.954,162.157  "/>
	<polygon style="fill:#FEC000;" points="479.437,184.591 325.046,162.157 256.001,22.255 255.996,22.262 255.996,374.661    256.001,374.658 394.092,447.258 367.718,293.49  "/>
</g>
<polygon style="fill:#FFDF47;" points="80.074,184.591 201.636,162.156 256.001,22.255 256.004,22.262 256.004,374.661   256.001,374.658 147.272,447.258 168.037,293.49 "/>
<g>
</g>
<g>
</g>
<g>
</g>
<g>
</g>
<g>
</g>
<g>
</g>
<g>
</g>
<g>
</g>
<g>
</g>
<g>
</g>
<g>
</g>
<g>
</g>
<g>
</g>
<g>
</g>
<g>
</g>
</svg>